<?xml version="1.0" standalone="no"?>
<!DOCTYPE svg PUBLIC "-//W3C//DTD SVG 20010904//EN"
 "http://www.w3.org/TR/2001/REC-SVG-20010904/DTD/svg10.dtd">
<svg version="1.0" xmlns="http://www.w3.org/2000/svg"
 width="300.000000pt" height="294.000000pt" viewBox="0 0 300.000000 294.000000"
 preserveAspectRatio="xMidYMid meet">
<metadata>
Created by potrace 1.10, written by Peter Selinger 2001-2011
</metadata>
<g transform="translate(0.000000,294.000000) scale(0.100000,-0.100000)"
fill="#000000" stroke="none">
<path d="M1548 2803 c7 -3 16 -2 19 1 4 3 -2 6 -13 5 -11 0 -14 -3 -6 -6z"/>
<path d="M1590 2800 c0 -5 5 -10 11 -10 5 0 7 5 4 10 -3 6 -8 10 -11 10 -2 0
-4 -4 -4 -10z"/>
<path d="M1305 2790 c-18 -8 -17 -9 8 -9 16 -1 26 3 22 9 -3 6 -7 10 -8 9 -1
0 -11 -4 -22 -9z"/>
<path d="M1208 2763 c7 -3 16 -2 19 1 4 3 -2 6 -13 5 -11 0 -14 -3 -6 -6z"/>
<path d="M1130 2750 c0 -5 7 -7 15 -4 8 4 15 8 15 10 0 2 -7 4 -15 4 -8 0 -15
-4 -15 -10z"/>
<path d="M1360 2754 c-203 -37 -294 -65 -433 -135 -322 -161 -557 -455 -622
-779 -10 -47 -19 -91 -21 -98 -3 -9 -15 -5 -44 13 -46 29 -48 25 -17 -29 26
-46 48 -59 41 -24 -5 19 -4 20 5 7 6 -9 22 -20 37 -23 19 -5 24 -12 22 -28 -5
-32 -25 -33 -37 -1 -9 22 -10 2 -7 -92 10 -275 118 -516 321 -721 237 -238
554 -366 905 -367 373 -1 689 129 935 384 196 204 298 440 307 713 2 86 5 100
21 104 10 2 29 26 42 53 31 60 31 68 3 42 -13 -11 -33 -25 -45 -32 -20 -10
-22 -8 -33 57 -69 399 -382 750 -795 890 -147 50 -226 63 -400 67 -88 2 -171
1 -185 -1z m395 -49 c297 -52 586 -226 759 -456 69 -91 129 -196 129 -224 0
-14 3 -23 7 -20 10 6 35 -62 55 -145 17 -77 19 -110 4 -110 -5 0 -7 5 -4 10 3
6 1 10 -4 10 -6 0 -11 15 -11 33 0 18 -7 55 -16 81 -9 26 -14 50 -10 53 3 3
-3 18 -13 32 -10 14 -22 41 -26 59 -3 17 -11 32 -16 32 -5 0 -8 3 -7 8 4 20
-72 154 -104 183 -10 9 -18 19 -18 23 0 7 -108 115 -153 154 -34 27 -185 132
-192 132 -3 0 -32 13 -65 30 -63 32 -228 91 -251 89 -8 0 24 -13 71 -28 98
-31 244 -102 329 -161 73 -49 189 -157 238 -221 20 -27 41 -45 46 -42 6 3 7 1
3 -5 -3 -6 10 -37 31 -69 67 -104 143 -320 143 -404 0 -15 5 -31 10 -34 6 -3
10 1 10 10 0 10 7 15 17 13 26 -5 26 -25 0 -32 -23 -5 -24 -10 -30 -123 -13
-253 -109 -477 -285 -664 -328 -350 -850 -470 -1312 -304 -228 83 -448 253
-575 444 -105 159 -165 352 -168 537 l-2 101 -30 12 c-27 11 -28 13 -12 22 14
8 21 7 30 -6 10 -13 15 -2 25 63 60 379 350 710 747 853 28 9 44 18 38 18 -52
3 -323 -134 -400 -202 -13 -11 -25 -18 -28 -15 -10 10 126 100 225 149 248
124 530 163 815 114z m-1077 -302 c-51 -42 -138 -136 -138 -150 0 -7 -4 -13
-8 -13 -9 0 -81 -111 -81 -124 0 -5 -3 -12 -8 -15 -13 -8 -44 -71 -49 -101 -3
-13 -11 -31 -17 -39 -7 -8 -13 -26 -13 -40 -1 -14 -3 -26 -4 -26 -3 0 -10 -27
-22 -87 -7 -32 -15 -58 -18 -58 -15 0 24 186 50 240 53 110 95 185 146 253 63
84 164 187 184 187 6 0 -3 -12 -22 -27z m2090 -705 c-13 -18 -27 -41 -33 -52
-9 -17 -25 -24 -25 -11 0 3 0 14 0 25 0 11 8 23 18 27 9 3 25 14 35 25 28 28
31 21 5 -14z m-2446 -140 c1 -29 2 -65 2 -80 1 -16 4 -28 7 -28 4 0 12 -28 19
-62 16 -73 13 -65 29 -102 6 -16 13 -36 14 -46 2 -9 9 -28 18 -41 8 -13 25
-48 39 -76 13 -29 27 -53 32 -53 4 0 8 -6 8 -13 0 -8 9 -22 20 -32 11 -10 20
-22 20 -26 0 -10 28 -45 78 -98 17 -19 32 -39 32 -44 0 -6 2 -8 5 -5 3 3 27
-16 53 -41 64 -62 91 -84 148 -117 27 -16 58 -34 69 -41 11 -7 27 -15 35 -19
8 -3 35 -15 60 -26 74 -32 90 -41 86 -46 -13 -12 -216 84 -283 134 -17 13 -36
24 -42 24 -6 0 -11 3 -12 8 0 4 -26 27 -57 51 -56 43 -147 142 -196 211 -44
63 -96 160 -96 181 0 11 -4 18 -9 15 -5 -4 -13 8 -16 26 -4 18 -11 39 -16 48
-13 26 -22 54 -26 85 -3 16 -9 36 -15 42 -6 7 -7 20 -4 29 4 9 2 22 -3 28 -15
18 -26 166 -12 166 6 0 12 -21 13 -52z m2402 -88 c-4 -14 -7 -28 -6 -32 3 -13
-27 -120 -36 -132 -5 -6 -12 -28 -16 -48 -4 -21 -11 -38 -16 -38 -6 0 -10 -9
-10 -20 0 -23 -42 -101 -107 -201 -38 -59 -167 -199 -219 -239 -74 -57 -92
-68 -98 -63 -3 4 -6 1 -6 -5 0 -11 -205 -116 -250 -127 -24 -7 -24 -7 -5 9 11
8 28 16 38 16 9 0 17 5 17 11 0 5 5 7 10 4 6 -3 17 1 26 9 8 9 22 16 30 16 8
0 14 4 14 8 0 4 16 14 36 21 20 7 44 20 53 30 10 9 33 25 52 35 49 29 186 155
181 168 -1 5 2 7 7 6 5 -2 21 13 35 32 109 149 169 260 211 390 15 47 32 87
36 88 5 2 9 8 9 13 0 6 -4 8 -9 4 -6 -3 -6 7 0 27 5 18 9 54 9 80 0 25 3 55 8
65 10 24 16 -93 6 -127z m-1569 -920 c7 -12 -2 -12 -30 0 -19 8 -19 9 2 9 12
1 25 -3 28 -9z m760 0 c-28 -12 -47 -12 -40 0 3 6 18 10 33 9 24 0 25 -1 7 -9z
m-86 -24 c-2 -2 -20 -6 -39 -10 -25 -4 -31 -3 -20 4 14 9 69 15 59 6z m-94
-16 c-3 -5 -12 -10 -18 -10 -7 0 -6 4 3 10 19 12 23 12 15 0z"/>
<path d="M1488 2713 c17 -2 47 -2 65 0 17 2 3 4 -33 4 -36 0 -50 -2 -32 -4z"/>
<path d="M1378 2703 c12 -2 30 -2 40 0 9 3 -1 5 -23 4 -22 0 -30 -2 -17 -4z"/>
<path d="M1618 2703 c12 -2 30 -2 40 0 9 3 -1 5 -23 4 -22 0 -30 -2 -17 -4z"/>
<path d="M1293 2693 c9 -2 23 -2 30 0 6 3 -1 5 -18 5 -16 0 -22 -2 -12 -5z"/>
<path d="M1708 2693 c6 -2 18 -2 25 0 6 3 1 5 -13 5 -14 0 -19 -2 -12 -5z"/>
<path d="M1210 2680 c-20 -6 -21 -8 -5 -8 11 0 31 4 45 8 20 6 21 8 5 8 -11 0
-31 -4 -45 -8z"/>
<path d="M1763 2683 c9 -2 23 -2 30 0 6 3 -1 5 -18 5 -16 0 -22 -2 -12 -5z"/>
<path d="M1257 2568 c-80 -107 -94 -208 -44 -310 33 -67 80 -111 157 -147 47
-22 69 -26 150 -26 82 0 103 4 150 26 30 14 72 43 94 64 45 45 86 126 86 173
l0 33 234 -6 c157 -4 236 -2 241 5 4 7 -70 10 -232 10 l-239 0 -12 43 c-6 23
-23 60 -37 82 -26 40 -26 36 3 -40 22 -58 21 -161 -3 -210 -26 -53 -81 -106
-141 -136 -71 -35 -188 -39 -268 -9 -96 37 -165 111 -185 201 -16 72 11 182
65 257 26 35 8 26 -19 -10z"/>
<path d="M1468 2459 c-3 -20 0 -29 9 -29 10 0 12 7 8 19 -3 11 -1 22 5 26 5 3
10 1 10 -4 0 -15 33 -14 49 2 11 10 13 10 7 0 -4 -7 -2 -13 3 -13 6 0 11 6 11
14 0 10 -14 14 -49 14 -46 0 -49 -2 -53 -29z"/>
<path d="M1545 2429 c-6 -18 -13 -20 -42 -16 -29 5 -33 4 -23 -8 25 -30 90 -8
90 31 0 22 -18 17 -25 -7z"/>
<path d="M700 2379 c0 -11 456 -6 468 5 3 3 -101 6 -231 6 -165 0 -237 -3
-237 -11z"/>
<path d="M1224 2316 c15 -49 25 -66 63 -103 49 -47 94 -75 145 -89 66 -17 68
-17 68 0 0 8 -15 17 -37 21 -77 13 -192 82 -178 105 4 6 1 9 -7 8 -7 -2 -12 5
-12 14 1 10 -3 16 -9 15 -6 -1 -16 12 -22 30 -17 52 -26 51 -11 -1z"/>
<path d="M1800 2314 c-26 -76 -127 -152 -228 -169 -51 -8 -52 -31 -1 -27 43 4
125 43 166 79 31 28 91 139 80 149 -3 3 -11 -11 -17 -32z"/>
<path d="M1565 2169 c-22 -4 -60 -6 -85 -4 l-45 4 43 -10 c30 -7 59 -7 97 1
30 6 55 13 55 16 0 5 -15 4 -65 -7z"/>
<path d="M1483 1010 c-35 -14 -43 -42 -43 -145 0 -89 2 -98 25 -120 14 -15 36
-25 53 -25 29 0 72 31 72 53 1 7 1 55 1 107 0 90 -1 96 -26 117 -28 24 -46 27
-82 13z m77 -30 c17 -17 20 -33 20 -110 0 -77 -3 -93 -20 -110 -24 -24 -57
-26 -82 -3 -25 23 -27 197 -1 225 21 24 58 23 83 -2z"/>
<path d="M1501 961 c-20 -13 -9 -46 17 -49 25 -4 41 23 24 40 -7 7 -10 5 -9
-8 1 -10 -6 -20 -15 -22 -21 -4 -25 24 -5 31 6 2 10 7 7 10 -3 3 -12 2 -19 -2z"/>
<path d="M1494 805 c-4 -9 -2 -21 4 -27 16 -16 47 -5 47 17 0 26 -42 34 -51
10z m36 -10 c0 -8 -7 -15 -15 -15 -8 0 -15 7 -15 15 0 8 7 15 15 15 8 0 15 -7
15 -15z"/>
<path d="M1508 603 c6 -2 18 -2 25 0 6 3 1 5 -13 5 -14 0 -19 -2 -12 -5z"/>
<path d="M916 2671 c-4 -5 3 -7 14 -4 23 6 26 13 6 13 -8 0 -17 -4 -20 -9z"/>
<path d="M2138 2653 c7 -3 16 -2 19 1 4 3 -2 6 -13 5 -11 0 -14 -3 -6 -6z"/>
<path d="M820 2619 c0 -5 5 -7 10 -4 6 3 10 8 10 11 0 2 -4 4 -10 4 -5 0 -10
-5 -10 -11z"/>
<path d="M650 2510 c-9 -6 -10 -10 -3 -10 6 0 15 5 18 10 8 12 4 12 -15 0z"/>
<path d="M598 2458 c-10 -10 -14 -18 -9 -18 10 0 36 29 30 34 -2 1 -12 -6 -21
-16z"/>
<path d="M415 2279 c-4 -6 -5 -12 -2 -15 2 -3 7 2 10 11 7 17 1 20 -8 4z"/>
<path d="M2611 2254 c0 -11 3 -14 6 -6 3 7 2 16 -1 19 -3 4 -6 -2 -5 -13z"/>
<path d="M2726 2067 c3 -10 9 -15 12 -12 3 3 0 11 -7 18 -10 9 -11 8 -5 -6z"/>
<path d="M258 1988 c-34 -72 -66 -204 -48 -193 6 3 10 17 10 29 0 26 33 133
50 167 7 11 10 23 7 25 -2 3 -11 -10 -19 -28z"/>
<path d="M2771 1984 c0 -11 3 -14 6 -6 3 7 2 16 -1 19 -3 4 -6 -2 -5 -13z"/>
<path d="M2778 1948 c7 -7 12 -21 12 -32 1 -12 7 -32 15 -46 l15 -25 -6 30
c-9 48 -26 85 -37 85 -7 0 -7 -4 1 -12z"/>
<path d="M2821 1814 c0 -11 3 -14 6 -6 3 7 2 16 -1 19 -3 4 -6 -2 -5 -13z"/>
<path d="M187 1703 c-20 -34 8 -385 34 -433 9 -18 2 54 -12 120 -14 65 -20
282 -8 296 7 8 7 14 0 18 -5 4 -12 3 -14 -1z"/>
<path d="M2837 1668 c8 -47 14 -49 11 -5 -1 20 -6 37 -10 37 -4 0 -5 -15 -1
-32z"/>
<path d="M2841 1558 c1 -68 6 -61 11 15 2 26 0 47 -4 47 -5 0 -7 -28 -7 -62z"/>
<path d="M2830 1438 c0 -19 -3 -51 -6 -69 -4 -19 -4 -31 0 -28 12 11 25 113
15 124 -5 5 -9 -5 -9 -27z"/>
<path d="M2801 1264 c0 -11 3 -14 6 -6 3 7 2 16 -1 19 -3 4 -6 -2 -5 -13z"/>
<path d="M2790 1205 c0 -8 4 -15 10 -15 5 0 7 7 4 15 -4 8 -8 15 -10 15 -2 0
-4 -7 -4 -15z"/>
<path d="M240 1185 c0 -29 81 -242 104 -273 18 -25 17 -3 -3 35 -11 22 -34 82
-52 134 -28 86 -49 129 -49 104z"/>
<path d="M2765 1134 c-8 -20 -21 -57 -29 -83 -18 -60 -86 -189 -143 -269 -133
-187 -340 -350 -556 -437 -306 -123 -632 -135 -939 -35 -283 93 -515 264 -665
489 -32 47 -58 87 -58 88 0 1 -31 6 -68 11 -60 8 -69 7 -78 -9 -12 -23 -12
-42 1 -34 6 3 41 3 79 -1 l70 -6 35 -57 c19 -31 63 -86 98 -124 81 -85 98
-115 98 -167 0 -33 -3 -41 -15 -36 -8 3 -15 1 -15 -4 0 -6 12 -10 26 -10 27 0
27 0 20 57 l-7 58 43 -41 c58 -56 100 -85 183 -129 39 -21 77 -44 86 -52 9 -7
20 -13 25 -11 14 3 54 -12 54 -21 0 -5 12 -8 26 -8 15 0 29 -5 33 -10 7 -10
112 -37 236 -59 68 -12 130 -15 255 -12 168 5 200 10 350 56 47 14 92 26 102
27 9 1 22 6 30 12 7 5 36 20 63 33 28 13 74 39 103 57 28 19 52 30 52 26 0 -4
8 2 19 13 10 10 31 28 47 39 69 50 166 143 239 231 17 20 35 41 40 48 23 28
119 216 140 273 29 80 44 133 40 133 -3 0 -12 -16 -20 -36z m-2485 -254 c-19
-13 -30 -13 -30 0 0 6 10 10 23 10 18 0 19 -2 7 -10z m63 -7 c-7 -2 -21 -2
-30 0 -10 3 -4 5 12 5 17 0 24 -2 18 -5z"/>
<path d="M2631 1063 c-10 -26 -10 -27 4 -9 8 11 15 23 15 28 0 15 -7 8 -19
-19z"/>
<path d="M409 1038 c130 -206 302 -358 524 -463 193 -92 360 -128 587 -129
172 0 268 14 421 64 274 90 529 278 655 485 26 43 13 29 -38 -40 -202 -273
-547 -458 -923 -496 -331 -34 -699 77 -957 288 -88 71 -179 171 -236 256 -45
67 -72 95 -33 35z"/>
<path d="M2676 963 c-6 -14 -5 -15 5 -6 7 7 10 15 7 18 -3 3 -9 -2 -12 -12z"/>
<path d="M400 896 c0 -13 53 -86 62 -86 5 0 -5 19 -23 43 -18 23 -34 44 -36
46 -2 2 -3 1 -3 -3z"/>
<path d="M2610 868 c-23 -24 -44 -58 -36 -58 2 0 19 18 36 40 34 43 34 54 0
18z"/>
<path d="M522 737 c35 -35 66 -62 71 -60 4 2 7 0 7 -5 0 -10 131 -112 143
-112 9 0 111 -64 118 -73 3 -5 9 -8 13 -8 9 1 34 -9 92 -34 108 -49 293 -96
367 -94 33 1 26 4 -37 14 -288 49 -550 176 -739 359 -94 92 -123 102 -35 13z"/>
<path d="M2523 768 c-175 -192 -474 -348 -763 -399 -99 -18 -101 -18 -32 -13
126 9 279 56 422 128 128 65 161 85 211 127 26 22 49 39 52 39 7 0 147 137
147 144 0 11 -7 6 -37 -26z"/>
<path d="M582 500 c0 -14 2 -19 5 -12 2 6 2 18 0 25 -3 6 -5 1 -5 -13z"/>
<path d="M1458 343 c28 -2 76 -2 105 0 28 2 5 3 -53 3 -58 0 -81 -1 -52 -3z"/>
<path d="M1281 318 c-1 -17 26 -31 69 -34 14 -1 41 -5 60 -8 34 -6 34 -6 5 4
-16 6 -46 13 -65 16 -54 9 -47 12 23 10 36 0 61 -4 56 -7 -5 -3 7 -10 26 -16
31 -10 34 -9 24 3 -6 7 -16 11 -22 7 -6 -3 -7 -1 -3 5 5 8 14 8 34 -1 15 -6
29 -14 32 -17 9 -9 50 -8 44 1 -7 12 3 11 25 -3 22 -14 56 -3 45 14 -6 9 -9 9
-12 0 -2 -7 -11 -12 -20 -12 -33 1 21 24 58 26 59 2 70 4 70 12 0 10 -411 9
-427 -1 -6 -4 -14 -1 -16 5 -4 8 -6 7 -6 -4z m267 -26 c2 -7 -2 -10 -12 -6 -9
3 -16 11 -16 16 0 13 23 5 28 -10z"/>
<path d="M1736 313 c-4 -5 -22 -14 -39 -21 l-32 -12 35 5 c32 5 78 35 54 35
-6 0 -14 -3 -18 -7z"/>
</g>
</svg>
